<?xml version="1.0" encoding="utf-8"?>

<svg xmlns="http://www.w3.org/2000/svg" xmlns:xlink="http://www.w3.org/1999/xlink" 
  height="512" width="512" viewBox="0 0 512 512">

  <image href="https://s0.gifyu.com/images/hello_kitty_Hello_Kitty_Head_ClipArt_in_PNG_File.png" height="512" width="512" />

  <rect width="512" height="512" stroke="red" fill="rgba(255,255,255,0.95)" opacity="0.95" ></rect>

  <text x="2" y="12" font-size="12" text-anchor="start" fill="red">0</text>
  <path d="M256  64 H0 H512" stroke="lightgray" fill="white"></path>
  <text x="2" y="68" font-size="12" text-anchor="start" fill="red">64</text>
  <path d="M256 128 H0 H512" stroke="lightgray" fill="white"></path>
  <text x="2" y="132" font-size="12" text-anchor="start" fill="red">128</text>
  <path d="M256 192 H0 H512" stroke="lightgray" fill="white"></path>
  <text x="2" y="196" font-size="12" text-anchor="start" fill="red">192</text>
  <path d="M256 256 H0 H512" stroke="lightgray" fill="white"></path>
  <text x="2" y="260" font-size="12" text-anchor="start" fill="red">256</text>
  <path d="M256 320 H0 H512" stroke="lightgray" fill="white"></path>
  <text x="2" y="324" font-size="12" text-anchor="start" fill="red">320</text>
  <path d="M256 384 H0 H512" stroke="lightgray" fill="white"></path>
  <text x="2" y="388" font-size="12" text-anchor="start" fill="red">384</text>
  <path d="M256 448 H0 H512" stroke="lightgray" fill="white"></path>
  <text x="2" y="452" font-size="12" text-anchor="start" fill="red">448</text>
  <text x="2" y="510" font-size="12" text-anchor="start" fill="red">512</text>

  <path d="M64  0 V512" stroke="lightgray" fill="white"></path>
  <text x="58" y="12" font-size="12" text-anchor="start" fill="red">64</text>
  <path d="M128  0 V512" stroke="lightgray" fill="white"></path>
  <text x="118" y="12" font-size="12" text-anchor="start" fill="red">128</text>
  <path d="M195  0 V512" stroke="lightgray" fill="white"></path>
  <text x="186" y="12" font-size="12" text-anchor="start" fill="red">192</text>
  <path d="M256  0 V512" stroke="lightgray" fill="white"></path>
  <text x="246" y="12" font-size="12" text-anchor="start" fill="red">256</text>
  <path d="M320  0 V512" stroke="lightgray" fill="white"></path>
  <text x="310" y="12" font-size="12" text-anchor="start" fill="red">320</text>
  <path d="M384  0 V512" stroke="lightgray" fill="white"></path>
  <text x="374" y="12" font-size="12" text-anchor="start" fill="red">384</text>
  <path d="M448  0 V512" stroke="lightgray" fill="white"></path>
  <text x="438" y="12" font-size="12" text-anchor="start" fill="red">448</text>
  <text x="492" y="12" font-size="12" text-anchor="start" fill="red">512</text>

  <path d="M256 256 V270 V242 M256 256 H270 H242" stroke="black" fill="white"></path>

  <text x="254" y="250" font-size="16" text-anchor="middle" fill="red">(256, 256)</text>

  
  <path d="M128 395, Q10 300, 92 186" stroke-width="10" stroke="#F00" fill="none" />
  <path d="M128 395, Q290 456, 425 375" stroke-width="10" stroke="#F00" fill="none" />
  <path d="M421 375, Q460 328, 440 230" stroke-width="10" stroke="#F00" fill="none" />
  <path d="M 92 196, Q50 156, 100 100" stroke-width="10" stroke="#F00" fill="none" />
  <path d="M100 100, Q130 100,182 128 " stroke-width="10" stroke="#F00" fill="none" />
  <path d="M182 128, Q200 120,266 123 " stroke-width="10" stroke="#F00" fill="none" />
  <path d="M266 123, C280 150 300 0,348 130" stroke-width="10" stroke="#F00" fill="none" />
  <path d="M348 110, Q450 60,438 160" stroke-width="10" stroke="#F00" fill="none" />
  <path d="M438 160, Q490 160,440 230" stroke-width="10" stroke="#F00" fill="none" />


  <path d="M8 296,Q56 286 100 296" stroke-width="10" stroke="#F00" fill="none" />
  <path d="M38 346,Q56 326 98 331" stroke-width="10" stroke="#F00" fill="none" />
  <path d="M48 400,Q56 386 118 361" stroke-width="10" stroke="#F00" fill="none" />
  <path d="M418 285,Q456 276 498 275" stroke-width="10" stroke="#F00" fill="none" />
  <path d="M418 325,Q456 316 488 325" stroke-width="10" stroke="#F00" fill="none" />
  <path d="M400 355,Q456 356 468 385" stroke-width="10" stroke="#F00" fill="none" />
  
</svg>
    