<?xml version="1.0" standalone="no"?>
<!DOCTYPE svg PUBLIC "-//W3C//DTD SVG 1.1//EN" "http://www.w3.org/Graphics/SVG/1.1/DTD/svg11.dtd" >
<svg xmlns="http://www.w3.org/2000/svg" xmlns:xlink="http://www.w3.org/1999/xlink" version="1.1" viewBox="-10 0 266 256">
   <path fill="currentColor"
d="M48 30q-3 -3 2 -2q4 4 11 5q3 1 12 6q3 1 7 2q2 7 -4 9q-11 -3 -20 -2q-6 1 -7 1q0 -1 6 -4q4 -2 4 -3q1 -1 -2 -3q-7 -4 -9 -9zM43 103v1q8 -3 12 0q2 4 1 6q-2 1 -5 2h-4t-3 1l-1 1q-4 3 -4 2q-1 -1 2 -6q-14 0 -24 -3q-3 -1 0 -2q14 2 26 -2zM77 135q1 -4 2 -4
q1 1 1 5q-20 55 -21 82q-1 4 -3 5q-2 0 -5 -4q-7 -8 -6 -24q-1 -7 2 -1q2 8 3 9t3 -3q8 -27 24 -65zM147 29l5 5t6 4q2 2 1 9q-3 7 -2 21q23 -18 31 -31q0 -5 6 -4q3 2 6 5q2 4 -2 6q-4 0 -6 4q-2 1 -3 2q-11 10 -32 25v4q8 -2 16 -6q8 -6 13 -2q0 1 1 1q4 2 8 1q10 3 11 6
q-2 5 -7 4q-17 -10 -42 1q-2 16 -1 47q-1 2 -1 4q-1 9 -1 16q23 -4 34 0q7 4 19 18q6 6 0 9q-2 1 -3 6q-1 1 -1 3q-4 22 -23 37q-7 6 -11 0l-18 -20q-8 0 -17 3h-1q0 3 -7 4q-5 1 -4 -2q0 -4 -6 -5q-8 -3 -7 -15q-6 -9 -7 -16t11 -12q3 -1 0 1q-10 5 -1 22q5 13 20 20
q3 0 15 -3v-7q-9 5 -6 1q1 -1 3 -4q1 -2 3 -4v-6q-5 2 -12 6q-7 3 -14 0q-5 0 0 -2q17 -5 26 -10q0 -2 -1 -8v-8q-11 5 -17 8q-2 1 -7 2h-6q-3 1 -4 0q0 -1 3 -3q14 -7 35 -14q-1 0 -1 -2q-1 -6 0 -12q1 -10 2 -35q-35 37 -68 51q-6 3 -1 -2q43 -26 69 -60v-5q-34 14 -68 20
q-3 0 -4 -1t2 -2q30 -7 51 -17q5 -3 14 -11q2 -2 5 -4q-1 -1 0 -9q1 -7 1 -9q-30 16 -40 29q-3 4 -6 3q-2 -2 -3 -8q-1 -7 3 -8q4 0 8 -11q0 -3 1 1q-1 11 5 7q3 -2 2 -1q18 -10 29 -15q1 -14 -6 -20q-1 -5 2 -2zM184 153q-14 -1 -31 4v8q1 5 1 6q11 -4 22 -4l2 1q1 1 0 2
q-6 4 -13 6q-6 2 -11 11q-2 5 -1 13q9 -2 12 -4q9 -6 13 0q0 7 -4 7q-10 0 -20 1q13 13 22 13q20 -8 22 -47q-4 -14 -14 -17zM167 114q11 0 23 2q8 3 22 4h5q8 2 18 6q2 6 -2 7q-6 1 -10 -2q-10 -2 -34 0q-3 0 -3 -1t3 -2q2 0 6 -1t7 -2q4 0 0 -1q-11 -2 -13 -2q-2 -1 -3 -2
q-3 0 -6 -1q-5 -1 -12 -3q-5 -1 -1 -2zM167 1q10 2 15 7q1 2 -1 4q-2 3 -5 2q-5 0 -13 4q-32 15 -53 18q-3 0 0 -1q25 -10 50 -26q5 -3 5 -6q-1 -3 2 -2z" />
</svg>
