<?xml version="1.0" standalone="no"?>
<!DOCTYPE svg PUBLIC "-//W3C//DTD SVG 1.1//EN" "http://www.w3.org/Graphics/SVG/1.1/DTD/svg11.dtd" >
<svg xmlns="http://www.w3.org/2000/svg" xmlns:xlink="http://www.w3.org/1999/xlink" version="1.1" viewBox="-10 0 266 256">
   <path fill="currentColor"
d="M131 52q2 -1 6 1q3 2 8 6q3 2 6 3q4 5 0 6q-7 0 -7 25q5 2 12 3t19 0q9 0 13 2q2 2 -1 5q-7 1 -12 3q-4 2 -2 -1q1 -2 0 -3q0 -1 -2 -1h-4q-13 -2 -23 -5q0 12 -1 36t0 35q1 17 -2 25q-1 4 -2 4q-3 0 -5 -4q-6 -9 -21 -21q-4 -4 2 -2q8 7 19 9q4 2 5 -4q2 -7 2 -61
q-4 5 -11 13q-3 5 -17 24q-3 4 -12 2q-3 0 -3 -1t3 -2q4 0 9 -5l1 -1q9 -10 23 -28q3 -4 7 -5q0 -9 -1 -26v-22q-1 -7 -6 -9q-1 1 -3 2q-2 2 -5 3q-5 2 -8 3q1 3 -4 4q-15 3 -19 7q-7 5 -23 13q4 4 7 8q3 -1 6 -3q5 -7 18 -5q2 1 3 3q-1 2 -3 2q-5 2 -23 10v9q1 6 1 7
q27 -4 25 -8q1 -3 7 -3q2 1 4 1q6 1 10 2q1 2 1 3t-2 1q-11 0 -45 8q-3 78 -28 90q-5 4 -1 -1q24 -13 23 -88q-14 3 -37 13q-10 5 -21 1q-5 -1 0 -2q18 -3 58 -16q0 -10 -1 -15q-21 9 -30 7q-2 0 -2 -2q0 -1 3 -2q7 2 28 -10q-1 -5 -6 -9q-2 0 -2 -1q1 0 5 -1q8 -6 5 -7
q-7 3 -22 4h-4q-3 0 -3 -1t3 -2q32 -7 42 -16q2 -3 9 -3q6 2 17 0q1 -1 4 -3q7 -1 10 -4zM193 38q2 -4 23 17q3 4 3 5t-3 1q-9 3 -8 8v10q4 84 5 129q-1 4 -3 5t-3 -2l-4 -4q-11 -11 -25 -26q-7 -8 2 -2q11 12 23 18q3 2 5 1q1 -1 1 -5q1 -63 -8 -146q-2 -6 -8 -8
q-10 1 -21 7q-6 4 -15 0q-5 0 0 -2q8 -1 17 -4q5 -1 19 -2zM68 22q-1 10 1 16q6 -2 10 -4q7 -3 12 -5q7 -2 1 2q-24 13 -23 19q-2 3 -6 4q-5 4 -6 -1q-8 -13 -1 -14q4 -1 10 -17q2 -5 2 0zM127 15q-4 -1 1 -1q2 0 8 5q2 2 -2 4q-12 5 -30 19q-11 9 -24 13q-7 3 -2 -1
q25 -15 47 -34q4 -4 2 -5zM169 136q9 -6 21 -6l2 2q0 2 -1 2q-25 9 -35 11q-6 -1 0 -2l3 -1t10 -6zM133 80q1 0 1 5q-5 5 -6 5q-3 1 -4 5q-2 2 -1 -1q0 -3 2 -6q1 -2 -1 -2q-5 0 -13 -3q-2 0 0 -1q3 1 6 -1q2 -2 16 -1z" />
</svg>
