<?xml version="1.0" encoding="UTF-8" standalone="no"?>
<svg
   version="1.1"
   viewBox="-10 0 266 256"
   id="svg1029"
   xmlns="http://www.w3.org/2000/svg"
   xmlns:svg="http://www.w3.org/2000/svg">
  <defs
     id="defs1033" />
  <path
     fill="currentColor"
     d="M131 52q2 -1 6 1q3 2 8 6q3 2 6 3q4 5 0 6q-7 0 -7 25q5 2 12 3t19 0q9 0 13 2q2 2 -1 5q-7 1 -12 3q-4 2 -2 -1q1 -2 0 -3q0 -1 -2 -1h-4q-13 -2 -23 -5q0 12 -1 36t0 35q1 17 -2 25q-1 4 -2 4q-3 0 -5 -4q-6 -9 -21 -21q-4 -4 2 -2q8 7 19 9q4 2 5 -4q2 -7 2 -61 q-4 5 -11 13q-3 5 -17 24q-3 4 -12 2q-3 0 -3 -1t3 -2q4 0 9 -5l1 -1q9 -10 23 -28q3 -4 7 -5q0 -9 -1 -26v-22q-1 -7 -6 -9q-1 1 -3 2q-2 2 -5 3q-5 2 -8 3q1 3 -4 4q-15 3 -19 7q-7 5 -23 13q4 4 7 8q3 -1 6 -3q5 -7 18 -5q2 1 3 3q-1 2 -3 2q-5 2 -23 10v9q1 6 1 7 q27 -4 25 -8q1 -3 7 -3q2 1 4 1q6 1 10 2q1 2 1 3t-2 1q-11 0 -45 8q-3 78 -28 90q-5 4 -1 -1q24 -13 23 -88q-14 3 -37 13q-10 5 -21 1q-5 -1 0 -2q18 -3 58 -16q0 -10 -1 -15q-21 9 -30 7q-2 0 -2 -2q0 -1 3 -2q7 2 28 -10q-1 -5 -6 -9q-2 0 -2 -1q1 0 5 -1q8 -6 5 -7 q-7 3 -22 4h-4q-3 0 -3 -1t3 -2q32 -7 42 -16q2 -3 9 -3q6 2 17 0q1 -1 4 -3q7 -1 10 -4zM193 38q2 -4 23 17q3 4 3 5t-3 1q-9 3 -8 8v10q4 84 5 129q-1 4 -3 5t-3 -2l-4 -4q-11 -11 -25 -26q-7 -8 2 -2q11 12 23 18q3 2 5 1q1 -1 1 -5q1 -63 -8 -146q-2 -6 -8 -8 q-10 1 -21 7q-6 4 -15 0q-5 0 0 -2q8 -1 17 -4q5 -1 19 -2zM68 22q-1 10 1 16q6 -2 10 -4q7 -3 12 -5q7 -2 1 2q-24 13 -23 19q-2 3 -6 4q-5 4 -6 -1q-8 -13 -1 -14q4 -1 10 -17q2 -5 2 0zM127 15q-4 -1 1 -1q2 0 8 5q2 2 -2 4q-12 5 -30 19q-11 9 -24 13q-7 3 -2 -1 q25 -15 47 -34q4 -4 2 -5zM169 136q9 -6 21 -6l2 2q0 2 -1 2q-25 9 -35 11q-6 -1 0 -2l3 -1t10 -6zM133 80q1 0 1 5q-5 5 -6 5q-3 1 -4 5q-2 2 -1 -1q0 -3 2 -6q1 -2 -1 -2q-5 0 -13 -3q-2 0 0 -1q3 1 6 -1q2 -2 16 -1z"
     id="path1027"
     style="fill:none;stroke:#ff0000;stroke-opacity:1" />
  <path
     style="fill:none;stroke:#000000;stroke-width:1px;stroke-linecap:butt;stroke-linejoin:miter;stroke-opacity:1"
     d="m 67.7858,16.481348 -5.083032,23.797834 -6.161252,2.002406 3.157642,8.240674 5.545126,-2.926594 -0.616125,-4.389892 34.040911,-16.635379"
     id="path1182" />
  <path
     style="fill:none;stroke:#000000;stroke-width:1px;stroke-linecap:butt;stroke-linejoin:miter;stroke-opacity:1"
     d="m 123.54513,12.168472 9.858,7.586041 -3.11913,-0.500602 -25.60771,19.79302 -14.55595,9.626956 -16.943445,9.01083"
     id="path1652" />
  <path
     style="fill:none;stroke:#000000;stroke-width:1px;stroke-linecap:butt;stroke-linejoin:miter;stroke-opacity:1"
     d="m 41.138388,80.09627 33.116726,-6.161252 14.478941,-3.54272 7.855595,-7.701564 17.7136,-0.924188 -15.2491,2.772564 -15.557158,10.320096 -8.279182,6.8929 -11.3213,5.776173"
     id="path1654" />
  <path
     style="fill:none;stroke:#000000;stroke-width:1px;stroke-linecap:butt;stroke-linejoin:miter;stroke-opacity:1"
     d="m 37.595668,106.74368 12.784597,0.61613 13.092659,-3.69675 8.163658,-4.158848 16.173286,-6.931408 7.855592,-3.54272 -10.166062,-3.080625 18.481792,1.891753"
     id="path1656" />
  <path
     style="fill:none;stroke:#000000;stroke-width:1px;stroke-linecap:butt;stroke-linejoin:miter;stroke-opacity:1"
     d="m 11.020898,133.74955 17.535567,0.43566 19.713899,-6.53499 18.515816,-6.31716 39.4278,-8.71333 7.51524,-2.50508 -8.27766,-5.55474 19.7139,5.33691"
     id="path1658" />
  <path
     style="fill:none;stroke:#000000;stroke-width:1px;stroke-linecap:butt;stroke-linejoin:miter;stroke-opacity:1"
     d="m 66.132681,82.449842 5.554745,5.445828 4.247746,5.663662 1.198082,7.733078 v 7.84199 l 0.762416,7.07958 -0.217833,5.88149 -0.108916,12.85216 -0.435667,10.78274 -1.524831,12.30757 -2.396165,13.94132 -2.831831,11.54516 -4.247746,10.67382 -4.792329,7.95091 -5.119079,4.90125 -10.020324,6.42607"
     id="path1660" />
  <path
     style="fill:none;stroke:#000000;stroke-width:1px;stroke-linecap:butt;stroke-linejoin:miter;stroke-opacity:1"
     d="m 115.68953,60.534296 16.63538,-7.547533 2.38748,-1.617329 14.78701,13.323707 -3.85078,0.847172 -1.92539,-3.927798 -1.07822,12.091456 -0.61613,16.866426 0.61613,17.097473 -0.84718,29.95909 -0.30806,22.95066 -0.69314,19.02286 -2.84958,13.24669 -4.54392,-8.24067 3.23466,-1.69435 -9.08785,-3.15764 -7.62455,-5.16005 -10.01203,-7.47051"
     id="path1662" />
  <path
     style="fill:none;stroke:#000000;stroke-width:1px;stroke-linecap:butt;stroke-linejoin:miter;stroke-opacity:1"
     d="m 107.83394,79.326113 17.79061,4.312876 6.46931,-1.001203 -4.31287,4.158845 -3.08063,3.773766 -1.92539,7.085439"
     id="path1664" />
  <path
     style="fill:none;stroke:#000000;stroke-width:1px;stroke-linecap:butt;stroke-linejoin:miter;stroke-opacity:1"
     d="m 95.04934,151.25872 12.55355,-2.07942 1.15523,1.15524 6.62335,-7.54754 10.39711,-14.24789 8.70277,-11.09025 5.23706,-5.77618 5.85319,-2.31047"
     id="path1666" />
  <path
     style="fill:none;stroke:#000000;stroke-width:1px;stroke-linecap:butt;stroke-linejoin:miter;stroke-opacity:1"
     d="m 150.80866,44.515042 15.40313,0.616125 10.43562,-4.004813 8.27918,-1.42479 11.7834,-1.809867 -5.62214,-1.77136 7.00842,4.23586 5.00602,6.007221 0.46209,5.622142 2.54152,-2.079423 9.08784,8.086643 -7.70156,2.4645 -2.61853,-4.158844 1.61732,29.188929 1.61733,24.567995 1.61733,34.503 0.77016,30.57521 v 25.64621 l -0.84717,9.70397 -3.08063,-7.3935 -4.69795,-2.4645 -9.78099,-7.93261 -13.7858,-13.16967 -5.23706,-7.62455"
     id="path1668" />
  <path
     style="fill:none;stroke:#000000;stroke-width:1px;stroke-linecap:butt;stroke-linejoin:miter;stroke-opacity:1"
     d="m 138.33213,92.457281 8.12515,2.734055 11.74489,2.618532 17.17448,1.463297 c 0,0 11.47534,0.385078 10.55115,0.539109 -0.92419,0.154032 -8.8568,1.463296 -8.8568,1.463296 l -6.85439,8.24068"
     id="path1670" />
  <path
     style="fill:none;stroke:#000000;stroke-width:1px;stroke-linecap:butt;stroke-linejoin:miter;stroke-opacity:1"
     d="m 149.4994,145.32852 13.01564,-3.31167 11.47533,-5.23707 13.24669,-4.15884 9.93502,-1.30927"
     id="path1672" />
</svg>
